
<global>
amp_veltrack=0
xfin_hicc1=24
xfout_hicc1=127
xfout_locc1=127
</global>

<group>
ampeg_release=0.25
group_label=Sustain_0-45
lpc_hicc1=42
lpc_locc1=0

<region>
hikey=a#4
hivel=127
lokey=a4
loop_end=112815
loop_mode=loop_continuous
loop_start=58616
loop_xfade=6567
lovel=1
lpc=2/YqQkmA18JJYb1C4H4ZwsFOikF9697AkQTuQKB5gcEGscZAZnKGwB8v1EBK00FAflkMv2xgJMANVhu/U/D3vwmnz77ti05Ag/ckP93ej77c1mm/gXNqQIwVFcEtgsJA
lpc_rms=-24.47
offset=11196
pitch_keycenter=a#4
sample=Flute_fall_PP_A#4.opus
</region>

<region>
hikey=a#5
hivel=127
lokey=a5
loop_end=75338
loop_mode=loop_continuous
loop_start=39144
loop_xfade=4385
lovel=1
lpc=3hmNQeCP78EBOHBBOvswQPIV2sCsttJAe78/wI34AT+zkVA/pfwWwNqq8T8RWm6/vxyGQGTtjMBgwS1A8u5vwP7rXkA2p/w8XPwiPrFHHz0yNS+/S+3oPiH1nL7EaFm/
lpc_rms=-22.36
pitch_keycenter=a#5
sample=Flute_fall_PP_A#5.opus
</region>

<region>
hikey=a#6
hivel=127
lokey=a6
loop_end=75625
loop_mode=loop_continuous
loop_start=39293
loop_xfade=4402
lovel=1
lpc=cKYAQtrUM8L9flBBRibpQNzBKcBSjJC/vzPtQIL9/D/5j5/AEeCSvkCoX0BC4LxA9pZ6wfa2t8ASMd9Bns3wwB4etsCJXIxA6I8KQPMw8MD5bDY909fdQG92v7//iBK/
lpc_rms=-7.19
offset=5438
pitch_keycenter=A#6
sample=Flute_fall_PP_A#6.opus
volume=-12.00
</region>

<region>
hikey=c5
hivel=127
lokey=b4
loop_end=89523
loop_mode=loop_continuous
loop_start=46514
loop_xfade=5211
lovel=1
lpc=GxK9QberR8KLyPVBhBxlwJis77/H3hdBnezhwCBIg8C23zRAbHE3wB/z2EBYyWnAnPhSQO2njcBHIQNARfh7vwTpuT+3+IO+SnW/P06uX8BILO8+zKKEvs/zNUCQmnW/
lpc_rms=-27.15
pitch_keycenter=c5
sample=Flute_fall_PP_C5.opus
</region>

<region>
hikey=c6
hivel=127
lokey=b5
loop_end=72619
loop_mode=loop_continuous
loop_start=37731
loop_xfade=4227
lovel=1
lpc=QUWIQb9EsMGPUEJAVSzMQPp5YsA70zxAyhpOPjy8U8DVJUxAc75Fv2wzBEAjbAjApkjEP0n4cD/Ns0+/CNTyPrh3f77w98s/sihVPzxTjL94Irk/V6qLwN/wHcD0mrhA
lpc_rms=-25.38
pitch_keycenter=c6
sample=Flute_fall_PP_C6.opus
</region>

<region>
hivel=127
key=d4
loop_end=80850
loop_mode=loop_continuous
loop_start=42008
loop_xfade=4706
lovel=1
lpc=MHiQQmVWNMPCuARDV02OwTSJc0CGFMjA7HQ4Ppa0LsGm9QZAXXqov6d/yEAY6mdAxrBvv5CMEMCr7DC/3P/3v5zaMr7jryNA6TDhP7UNfr8Y2gLALLMJwH0YgUDLNYm/
lpc_rms=-27.84
sample=Flute_fall_PP_D4.opus
</region>

<region>
hikey=d5
hivel=127
lokey=c#5
loop_end=104060
loop_mode=loop_continuous
loop_start=54067
loop_xfade=6057
lovel=1
lpc=aE3cQSDlbcIRRSJCKF1rwTuDfUFJPNjA+YUbQGsGBsF2dRdA7QI4v11iTUDzuOC+CMdQQKAwYsCGmYQ/K039v7GEWj/UnZK/ddZzQNz7AMAtLUNAWzFrv1si08CKKaxA
lpc_rms=-26.31
pitch_keycenter=d5
sample=Flute_fall_PP_D5.opus
</region>

<region>
hikey=d6
hivel=127
lokey=c#6
loop_end=94488
loop_mode=loop_continuous
loop_start=49094
loop_xfade=5500
lovel=1
lpc=xP2bQRD+zMGjFwE+7/4EQZyGIsDwVoBAL58dP+GhscBCNqlAlWQfwN2qCUC+tRG/ohEBv09Ep7+tgdM/JSfwP8zQML/lAWG/Dm25P/G2YsD5q/fAlCsHQXamHkH/MwvB
lpc_rms=-21.99
pitch_keycenter=d6
sample=Flute_fall_PP_D6.opus
</region>

<region>
hikey=e4
hivel=127
lokey=d#4
loop_end=96075
loop_mode=loop_continuous
loop_start=49919
loop_xfade=5592
lovel=1
lpc=nQ2OQiqxPsM9YC5DT1xpwiF9S0Hb41jBUpLMQFRJP8ABJgbAy3xwQGTqG8DtDYJAIoQOQEbthcDLQby/v2n2v2JUA0GUTHrAVRPIvwGZJT1EIIs/U/2FwJyqy0Bx9A/A
lpc_rms=-25.40
pitch_keycenter=e4
sample=Flute_fall_PP_E4.opus
</region>

<region>
hikey=e5
hivel=127
lokey=d#5
loop_end=93852
loop_mode=loop_continuous
loop_start=48764
loop_xfade=5463
lovel=1
lpc=ebAAQgameMK3QfJBbiDoPzSDF8DK0+xAhEiHP2UPKME46MtAIjsKwR2gAUFOL3PAJLWoQHnLncDTfKlAdh3GwFOq0UDKGvK/qhWov/XBdL7ENQDAklARwBk6MUHqCbjA
lpc_rms=-24.76
offset=15280
pitch_keycenter=e5
sample=Flute_fall_PP_E5.opus
</region>

<region>
hikey=e6
hivel=127
lokey=d#6
loop_end=100569
loop_mode=loop_continuous
loop_start=52254
loop_xfade=5854
lovel=1
lpc=pFifQbC04cGEc7tAeDKqQGVXgcBB965AEhciv0naN8Au0ZFAAAIKwNdGFkDV0Y3ABF0iQMo7rz5pLwxA4WWCv93cuL6aCaa/nHUjwUPPXkGdvxJAjUnNwJv0TEBxlgPA
lpc_rms=-23.21
offset=12985
pitch_keycenter=e6
sample=Flute_fall_PP_E6.opus
</region>

<region>
hikey=f#4
hivel=127
lokey=f4
loop_end=92383
loop_mode=loop_continuous
loop_start=48000
loop_xfade=5378
lovel=1
lpc=R9JkQnBFDcOXz9dCTg3qwbBIaEHfoIU/XUcPwWNxVcCc1kW9LmPNv4Sm20AuLF7ANx1yQCqXoMDgoKhAq38lwTaXAEFG6AA+CP2BQOqsUMA2VVfAv5+MQG8kAMHrN61A
lpc_rms=-26.79
pitch_keycenter=f#4
sample=Flute_fall_PP_F#4.opus
</region>

<region>
hikey=f#5
hivel=127
lokey=f5
loop_end=85880
loop_mode=loop_continuous
loop_start=44621
loop_xfade=4999
lovel=1
lpc=nKgZQtCVisKPHvtBxn3yPzLumsB5Q4dBeopfwSf1HcC/9cRAq7sKwVufZUHoAWnAKw/Tv6csisBxzXVA8yw9wdWdVkGqhrs/vnliwJNIlEDDZ9vA5kg7v8Fg/0AuQqLA
lpc_rms=-20.50
pitch_keycenter=f#5
sample=Flute_fall_PP_F#5.opus
</region>

<region>
hikey=f#6
hivel=127
lokey=f6
loop_end=79798
loop_mode=loop_continuous
loop_start=41461
loop_xfade=4645
lovel=1
lpc=zXU8QcSUOMFHM+y/LsLYQJIBRsDtWJg+G6m+vP/WQT/YYYVAM+EswBeitz+MGpG/2SEbP4i17j17PoE/9cwgwMy3l8Bh9rJAAjYVQJFbg8BZHkI/ilr9P1AwEb+lkQjA
lpc_rms=-23.90
pitch_keycenter=f#6
sample=Flute_fall_PP_F#6.opus
</region>

<region>
hikey=g#4
hivel=127
lokey=g4
loop_end=108585
loop_mode=loop_continuous
loop_start=56419
loop_xfade=6321
lovel=1
lpc=6XAjQiXY0cIIVbJCQ1/owZ6sR0H7uK3AHKEmwMMowMB5/xJB/OkEwWYhAkH1cWjA0iSVQE02BMEzstxAKs+qwG2BVkCjzsG+TuyIPrXIWr9A8oA/TPwvQDbs9MAO45FA
lpc_rms=-26.99
pitch_keycenter=g#4
sample=Flute_fall_PP_G#4.opus
</region>

<region>
hikey=g#5
hivel=127
lokey=g5
loop_end=77631
loop_mode=loop_continuous
loop_start=40335
loop_xfade=4519
lovel=1
lpc=YKTpQW19L8KVayxBIXlsQHQjNz/cB/JAVyqBwMsC4D8UQ5TAWfoMwLMIPz+5goS+9snQQEx5gz7aRpY/UKhZwNPhzMAoOdM/Ou/lP69bUUBJE2dAEDkFwLLcX8CadMy+
lpc_rms=-21.35
offset=7446
pitch_keycenter=g#5
sample=Flute_fall_PP_G#5.opus
</region>

<region>
hikey=g#6
hivel=127
lokey=g6
loop_end=95234
loop_mode=loop_continuous
loop_start=49481
loop_xfade=5544
lovel=1
lpc=jPrNQY9x5cG4px/BIB4nQT5q20CHTcpAow3EwKqHIr9r6bQ/Cat7wODJm0DA/sm/0sKYQKnu6cBM5i3BB5MOQdI/gkHk1IS/WfIjwcFEr8CSX4I/Vka4QPjM8j2hAai/
lpc_rms=-19.60
pitch_keycenter=g#6
sample=Flute_fall_PP_G#6.opus
</region>
</group>

<group>
ampeg_release=0.25
group_label=Sustain_46-90
lpc_hicc1=84
lpc_locc1=43

<region>
hikey=a#4
hivel=127
lokey=a4
loop_end=105452
loop_mode=loop_continuous
loop_start=54790
loop_xfade=6138
lovel=1
lpc=sTf+QRzzqsJbzKNCKLYFwlNstkC64LBA+tOYwBjd+L8vGgbAKCPkPz94n0CWQrnA3CQKQRrTc8Feb3tBiYL/wELM4L54pYtAFbtNwJI8KMApUypBb95aweIyA0H4Eta/
lpc_rms=-19.75
pitch_keycenter=a#4
sample=Flute_fall_MF_A#4.opus
</region>

<region>
hikey=a#5
hivel=127
lokey=a5
loop_end=78924
loop_mode=loop_continuous
loop_start=41007
loop_xfade=4594
lovel=1
lpc=U+qcQZyvCsIH6LFBC5SRwPuVncDLkSdBRZvKwKujIr27L2hAEJi3wBdTSUDXKoC+sOmGQJhxa8Cgmb0/Q9qkwM1WyUDdmgzA+h4GP7PW1T9h8Ca+ouR5wFngO0DejNi/
lpc_rms=-14.40
offset=7582
pitch_keycenter=a#5
sample=Flute_fall_MF_A#5.opus
</region>

<region>
hikey=a#6
hivel=127
lokey=a6
loop_end=75625
loop_mode=loop_continuous
loop_start=39293
loop_xfade=4402
lovel=1
lpc=cKYAQtrUM8L9flBBRibpQNzBKcBSjJC/vzPtQIL9/D/5j5/AEeCSvkCoX0BC4LxA9pZ6wfa2t8ASMd9Bns3wwB4etsCJXIxA6I8KQPMw8MD5bDY909fdQG92v7//iBK/
lpc_rms=-7.19
offset=4832
pitch_keycenter=A#6
sample=Flute_fall_MF_A#6.opus
</region>

<region>
hikey=c5
hivel=127
lokey=b4
loop_end=75643
loop_mode=loop_continuous
loop_start=39302
loop_xfade=4403
lovel=1
lpc=X3+eQctkRMLLVzRCMXupwXD3KkFSFZzA+1W+v1J7A0APw8K+atfVvSUA8z8LcajA4A/qQOb6NMBRBK+8DN+nwN2N2kAZyKC/0mMFwKdFsz/p7/I/1b97wJ5Ltz+hGCE/
lpc_rms=-18.98
pitch_keycenter=c5
sample=Flute_fall_MF_C5.opus
</region>

<region>
hikey=c6
hivel=127
lokey=b5
loop_end=92633
loop_mode=loop_continuous
loop_start=48130
loop_xfade=5392
lovel=1
lpc=Lm15QUfIu8HckgpBn3iTQJFtBMEUb9tAHl1HvyNVK8BIBQNAz6qSv+BDMEDHafy/X94jQL1Szb86tQo8Muc9P9+LFD0Z2gNAKLgBwEktyr8uRrZAYjV7wA0i0MAFpOxA
lpc_rms=-17.67
pitch_keycenter=c6
sample=Flute_fall_MF_C6.opus
</region>

<region>
hivel=127
key=d4
loop_end=85007
loop_mode=loop_continuous
loop_start=44168
loop_xfade=4948
lovel=1
lpc=/MQMQtB6xMKd2MpCxn0/wgxhPkFELRfAGqnAQGYwDcF9d1c/UnADv3kVhUCRJ6e+BcA+PyznU8AS941A8ISiwHxdAUA+pHO+xHEPQLgrQsAVNM8/AawvQPHxycCsVlVA
lpc_rms=-28.39
sample=Flute_fall_MF_D4.opus
</region>

<region>
hikey=d5
hivel=127
lokey=c#5
loop_end=80741
loop_mode=loop_continuous
loop_start=41951
loop_xfade=4700
lovel=1
lpc=fVqpQepnPMLHJApCsTDAwCUZpcDkqtxAIAKBv1AUrcAXKqhAmc52wK0hvD9qVhtAHaw2vxfuQ8CBMvo/hDJXP8+qx79x3QZARCQDwKRMR0Csqg7AYSGTP95jfcCj5mpA
lpc_rms=-19.53
offset=2644
pitch_keycenter=d5
sample=Flute_fall_MF_D5.opus
</region>

<region>
hikey=d6
hivel=127
lokey=c#6
loop_end=103233
loop_mode=loop_continuous
loop_start=53637
loop_xfade=6009
lovel=1
lpc=kOaLQYL7zcGCmcVAnY2xQCQ4U8DETDZA/eqUvz9t1T7kKJ4/yG76v1aKN0Bg7MS/XUipP0hN7L+t7gtAyGC8PcDfwT2RFoy/HUMTQJU1G8DYqh3BpVJLQR+/TUD9t6nA
lpc_rms=-15.80
pitch_keycenter=d6
sample=Flute_fall_MF_D6.opus
</region>

<region>
hikey=e4
hivel=127
lokey=d#4
loop_end=71186
loop_mode=loop_continuous
loop_start=36986
loop_xfade=4144
lovel=1
lpc=tq0TQvrczcJoH99C22qQwgrcKkLWfQfB441rwUqkIUH9aLnAdzIiP5UinkCqmWzA/lcAQSiDNsFznBNBFlEBwTxgS0AyWhRA5s+NP0+clsD4FhdAZnKXwPogD0EP+I7A
lpc_rms=-21.38
pitch_keycenter=e4
sample=Flute_fall_MF_E4.opus
</region>

<region>
hikey=e5
hivel=127
lokey=d#5
loop_end=97424
loop_mode=loop_continuous
loop_start=50619
loop_xfade=5671
lovel=1
lpc=vs8CQq4IjsIWrWFCZpmxwRnPMEFL293A7VuyP11xZz2mP4xA+brrvyxpFcDXLVLAJBbhQOam5sB+7jdBHc3hwKSLkD8HVN6/GhO6QJ1L4MCOuOVA/CndwEXVGUDQLto/
lpc_rms=-17.65
pitch_keycenter=e5
sample=Flute_fall_MF_E5.opus
</region>

<region>
hikey=e6
hivel=127
lokey=d#6
loop_end=98194
loop_mode=loop_continuous
loop_start=51020
loop_xfade=5716
lovel=1
lpc=WoqCQY/ZqsFeBpS/Uq8cQQhQEsA9PSE/ZEomP1fHJL/e3+M+Kw/yviH+7T/RvgjAPsvBP991w77JgOI+Y6moPtm9Lz/DopjAdUC/wEJgPEGOUJlA5wADwRrgQr7TwEY/
lpc_rms=-17.93
pitch_keycenter=e6
sample=Flute_fall_MF_E6.opus
</region>

<region>
hikey=f#4
hivel=127
lokey=f4
loop_end=96576
loop_mode=loop_continuous
loop_start=50179
loop_xfade=5622
lovel=1
lpc=pW2tQetlYsLm/lhCwpXAwWB17kDSami+jYNEwMUsgr+wv4tAGEWPwHyrTEBreBHAS5+wQA05AsETeBBBUp9NwcQYQUEIyivAlruvvdhoocB4M8RAiLOjwHQ6iEBCNsS/
lpc_rms=-21.99
pitch_keycenter=f#4
sample=Flute_fall_MF_F#4.opus
</region>

<region>
hikey=f#5
hivel=127
lokey=f5
loop_end=98707
loop_mode=loop_continuous
loop_start=51286
loop_xfade=5746
lovel=1
lpc=DaWVQW3KHMKpLP1B2WhNwfKbEUBHYTtAIKlkv+xFuD1ulkO/1y6ivs3hLz9E7DDA36XLQKdXkcCR1GVApQ1vwM3FaECwCFHARCQ/QE9Y3b/Se7w/oDZvwPBo0EAAozrA
lpc_rms=-18.57
pitch_keycenter=f#5
sample=Flute_fall_MF_F#5.opus
</region>

<region>
hikey=f#6
hivel=127
lokey=f6
loop_end=96201
loop_mode=loop_continuous
loop_start=49984
loop_xfade=5600
lovel=1
lpc=1ZbSQZyo8cHL3IbA2RU/QfBtu79DM8o/9JPfQDdF0MA7rRNAxssvvylG+j8TnIi/uDQPQMddj7814GlAqa6XwGULhsG9/aRBKpMVQbh4H8F8YoA+gAGRv3nvjcD7f5dA
lpc_rms=-13.93
pitch_keycenter=f#6
sample=Flute_fall_MF_F#6.opus
</region>

<region>
hikey=g#4
hivel=127
lokey=g4
loop_end=70506
loop_mode=loop_continuous
loop_start=36633
loop_xfade=4104
lovel=1
lpc=D7PTQYJ7lsJ+AqNCC3c5wiyt4EHl6Z/BpHLEQIVL1sBwF05B3IQTwRlvEUFxdVDBbYkrQVpBusAvPe5A+b4+wWxXG0E4haXA1jdHQBRUKj/0foe/+v+TwKytxUDcsgXA
lpc_rms=-21.28
pitch_keycenter=g#4
sample=Flute_fall_MF_G#4.opus
</region>

<region>
hikey=g#5
hivel=127
lokey=g5
loop_end=98323
loop_mode=loop_continuous
loop_start=51086
loop_xfade=5723
lovel=1
lpc=sqliQciRw8Hu8VJBZgD3v1PBqT+SsNW/Qv8NQD3dH8Cl6L8/WrWvPmbemb9EvOO+wycLQMHIbL7opDpA1Xc3wG+3Vr+VIqS/3AlXQFGGSr9+eFO/yskpP/KamD9BuqK/
lpc_rms=-21.52
pitch_keycenter=g#5
sample=Flute_fall_MF_G#5.opus
</region>

<region>
hikey=g#6
hivel=127
lokey=g6
loop_end=95629
loop_mode=loop_continuous
loop_start=49687
loop_xfade=5566
lovel=1
lpc=+jCCQaWln8FWL8Q/2sLXQL6/rsBZ/59AWBNEP4nVwD85IwhAYp6PwOjT7T/mTGw+a+kfQPkRvb+1/wDBil23QHYRDEEJCMTARo4yQLdRYL9GpS6/Et9zv8gpJcAEDIhA
lpc_rms=-14.47
pitch_keycenter=g#6
sample=Flute_fall_MF_G#6.opus
</region>
</group>

<group>
ampeg_release=0.25
group_label=Sustain_91-127
lpc_hicc1=127
lpc_locc1=85

<region>
hikey=a#4
hivel=127
lokey=a4
loop_end=69830
loop_mode=loop_continuous
loop_start=36282
loop_xfade=4065
lovel=1
lpc=vkaIQaYxKcIyCBdC5FpKwdH8j792cClA6XsBQEsensCntYY/GGtFv4ijpEAyhbvANloLQdqpW8FPekxBIb0LwSQKskA0+pq/5GV4v9hljD52hbo/fTAkwMA/xD6Thm8/
lpc_rms=-17.90
pitch_keycenter=a#4
sample=Flute_fall_FF_A#4.opus
</region>

<region>
hikey=a#5
hivel=127
lokey=a5
loop_end=74891
loop_mode=loop_continuous
loop_start=38912
loop_xfade=4359
lovel=1
lpc=VJ+GQcW8vMH61+RA+LqTQBh/nsDvg9dAmN2WwO0S+j/RM0C/g5DtvxRe6T8pj7e+dq2PQM0xisDgIcU/5rvGv/HSIj23uwdAfICcPsueIr8Gasw/mNhOwMi54z88Zt2/
lpc_rms=-12.69
pitch_keycenter=a#5
sample=Flute_fall_FF_A#5.opus
</region>

<region>
hikey=a#6
hivel=127
lokey=a6
loop_end=88364
loop_mode=loop_continuous
loop_start=45912
loop_xfade=5144
lovel=1
lpc=4DTGQY2aEcIHpzxB2vD5QOI3jMBsGds/NU2aP3a5gD+WoJY/SyzrvziubkAToQtAJxIzwVDfgsD5ScpBKagjwVwZvMCk7btAmzZfv7YAn78l2CU+p70UQGQvCMAB02A/
lpc_rms=-10.86
pitch_keycenter=A#6
sample=Flute_fall_FF_A#6.opus
</region>

<region>
hikey=c5
hivel=127
lokey=b4
loop_end=75989
loop_mode=loop_continuous
loop_start=39482
loop_xfade=4423
lovel=1
lpc=PaEdQfpOscHTLIpB3j6LwFj0c7zGIw8/WEKJv3QCez8utGu/XbgyPdJnlb8E+Y9A+Pk+wIw0ir4Owia+VXP9P4zuI8CpPJA/zXC8vsH9yT9+ZQE94ycQwEkAmT/BMGk9
lpc_rms=-20.89
pitch_keycenter=c5
sample=Flute_fall_FF_C5.opus
</region>

<region>
hikey=c6
hivel=127
lokey=b5
loop_end=73640
loop_mode=loop_continuous
loop_start=38261
loop_xfade=4286
lovel=1
lpc=ZjmJQfwFysEvqCRB5QQ4PvT51r+kDnRAzYmDwMiPTkDKy56/K5u2vnHYej9pBE5A6Byqv79eQMBDOgNAnPQKQMGYy74BUd+/rAZEQMaSGcDvdvE/6Q18v9Gh4MBNrvRA
lpc_rms=-13.97
pitch_keycenter=c6
sample=Flute_fall_FF_C6.opus
</region>

<region>
hivel=127
key=d4
loop_end=71343
loop_mode=loop_continuous
loop_start=37068
loop_xfade=4153
lovel=1
lpc=XIznQbxbk8LbCINChWniwZDDgEH+WwbBUpdLQMzNFcGo2ChBXIAhwVSRFEEWybvAu7D7QHka6cBB3qpAOXPowIioskBJYX7ABb2AQKWeFMCEhWRA6ncEwDLCU8BTkTBA
lpc_rms=-22.36
sample=Flute_fall_FF_D4.opus
</region>

<region>
hikey=d5
hivel=127
lokey=c#5
loop_end=82804
loop_mode=loop_continuous
loop_start=43023
loop_xfade=4820
lovel=1
lpc=JFUeQXC+ocE1jVNBavmhv+yi+78o3RdAgbXNv6E6BT+62zG/GvfMvoN0xj+1DhM/ygb2Pj7xrMA6lsxAjfkqwDK57T7t8oe/K3G+P/qvyr1xPAm/lzEnPWwUG7/ejXQ/
lpc_rms=-21.44
pitch_keycenter=d5
sample=Flute_fall_FF_D5.opus
</region>

<region>
hikey=d6
hivel=127
lokey=c#6
loop_end=74948
loop_mode=loop_continuous
loop_start=38941
loop_xfade=4363
lovel=1
lpc=dPGSQRAYv8FqfXdA1yesQP9rEcAC6uQ/KnPFP13QV8DlCm1AeOOqv6HKsj9hofw9LakiPh/9FD2R8PU+ifYLQGD4PsC/ThdAid81P6qjq7+SHiPB1+kUQdrK2ECNDK7A
lpc_rms=-11.51
pitch_keycenter=d6
sample=Flute_fall_FF_D6.opus
</region>

<region>
hikey=e4
hivel=127
lokey=d#4
loop_end=100925
loop_mode=loop_continuous
loop_start=52438
loop_xfade=5875
lovel=1
lpc=SPH7QTg3qcIvt5pCKde5wVBX7j+whcO/hNfgwMyBxkA6OpRAEVE8wREPUEHKUTPBjWpeQXg5jcGgL1xB3SPzwFUfekAqLo8/y+RdwNenBr1uZWlAhAjJwBJzxUB1XArA
lpc_rms=-20.31
pitch_keycenter=e4
sample=Flute_fall_FF_E4.opus
</region>

<region>
hikey=e5
hivel=127
lokey=d#5
loop_end=77973
loop_mode=loop_continuous
loop_start=40513
loop_xfade=4539
lovel=1
lpc=0mBoQUI+78H2waJBVNutwIPdhECh8CG/HU2lwOg3mUBcmxDAH7pUQEHprsBDLnNAdypuP9JvHcDkrANAznLmv35c5z9dAm+/qFC1P0io+b8sRw1Avr2Wv/BJob/UNvI/
lpc_rms=-19.30
offset=14172
pitch_keycenter=e5
sample=Flute_fall_FF_E5.opus
</region>

<region>
hikey=e6
hivel=127
lokey=d#6
loop_end=86499
loop_mode=loop_continuous
loop_start=44943
loop_xfade=5035
lovel=1
lpc=O3uiQQlgAMLbGjZB1iWcQBhp7r8ePbc/sjrzv3xyG0C62EO+/o7bvxnOgkB7x+e/Vof6vkxbGkBzALI+aTGtv0W6F0Dr6rjAQ67hwGYRrUEVWgXBgL1HwIrTxT58p5U/
lpc_rms=-11.98
offset=5326
pitch_keycenter=e6
sample=Flute_fall_FF_E6.opus
</region>

<region>
hikey=f#4
hivel=127
lokey=f4
loop_end=72700
loop_mode=loop_continuous
loop_start=37773
loop_xfade=4232
lovel=1
lpc=Pom4QcZFVsK/5BJCub+vvgCicMCcyhHAeZOZP8hfssBA0w5BQt+3wHqpo0A2wsjAuhzUQNxF98AUjQVBgK+rwMSlvT8DfmE98qF2PyaWMsAu4m1AIhpWwMsg7z/3pN6+
lpc_rms=-18.70
pitch_keycenter=f#4
sample=Flute_fall_FF_F#4.opus
</region>

<region>
hikey=f#5
hivel=127
lokey=f5
loop_end=77305
loop_mode=loop_continuous
loop_start=40166
loop_xfade=4500
lovel=1
lpc=DTIbQeMlj8GbUT1BU9M3wE+YSL0K368/FuWIvw9KAD9rEIG91xk+PgWcEr8B0Ys/Rwqjv9ddLj58YNk/bzirPp2pAr9T8jE+vX+8v4LccT4nKO0/8+JYv5LznD4Ve5M9
lpc_rms=-19.21
pitch_keycenter=f#5
sample=Flute_fall_FF_F#5.opus
</region>

<region>
hikey=f#6
hivel=127
lokey=f6
loop_end=103314
loop_mode=loop_continuous
loop_start=53680
loop_xfade=6014
lovel=1
lpc=LhmmQQce38HYFZ9A9qgRQUvUQMDXzMQ+1Kv4Pxlunr9AnQRAlrA3PWqga0D2XLXA1Cz9QIC5osBR7L9A1FkHwUxw1cDx85JBhaFbv2a3C8GGb4tAMGgIwFtOKED4S7G/
lpc_rms=-13.60
pitch_keycenter=f#6
sample=Flute_fall_FF_F#6.opus
</region>

<region>
hikey=g#4
hivel=127
lokey=g4
loop_end=69702
loop_mode=loop_continuous
loop_start=36215
loop_xfade=4057
lovel=1
lpc=GAtsQXl4C8LxfeVB0eYpwX9/ukBmbFzA05BRv7W0xDzORTg/n0i8vjh7zT/1c22/80wBvKYlcL/CCu0/CrKWvzKuiD/zNhnAM7gPQDei678OO/0/7fVzP8eOT8BjXsI/
lpc_rms=-20.66
pitch_keycenter=g#4
sample=Flute_fall_FF_G#4.opus
</region>

<region>
hikey=g#5
hivel=127
lokey=g5
loop_end=75300
loop_mode=loop_continuous
loop_start=39124
loop_xfade=4383
lovel=1
lpc=HS0RQVzEdMFv/ulAORB9P743u7+815M+0vafP+qrvL/iFABADk8nwEh5mj8OKUu/BbUjQKewTL80IRbAJ2ZHQMm+6L1KBcK/L5e7v3zThkDgsDXAO4X3P28IX7/wIp2+
lpc_rms=-18.75
pitch_keycenter=g#5
sample=Flute_fall_FF_G#5.opus
</region>

<region>
hikey=g#6
hivel=127
lokey=g6
loop_end=109929
loop_mode=loop_continuous
loop_start=57117
loop_xfade=6399
lovel=1
lpc=I9mXQaaKycHlPYlAckvVQD6+P7/XEYa/HRuTP86JQEAeCsu/JxD6vsvE4T9+UTS/YO8kQNBMlL+nl1bBZUtdQbe13EDLpynBRQjfP2ppLkB8ZeC/5CuZvwNtbT/qDxg+
lpc_rms=-13.88
pitch_keycenter=g#6
sample=Flute_fall_FF_G#6.opus
</region>
</group>

<group>
ampeg_attack=0.01
ampeg_release=1.80
group_label=Release_0-45
lpc_hicc1=42
lpc_locc1=0
rt_decay=0.000000
trigger=release

<region>
hikey=a#4
hivel=127
lokey=a4
lovel=1
lpc=2/YqQkmA18JJYb1C4H4ZwsFOikF9697AkQTuQKB5gcEGscZAZnKGwB8v1EBK00FAflkMv2xgJMANVhu/U/D3vwmnz77ti05Ag/ckP93ej77c1mm/gXNqQIwVFcEtgsJA
lpc_rms=-24.47
offset=125251
pitch_keycenter=a#4
sample=Flute_fall_PP_A#4.opus
</region>

<region>
hikey=a#5
hivel=127
lokey=a5
lovel=1
lpc=3hmNQeCP78EBOHBBOvswQPIV2sCsttJAe78/wI34AT+zkVA/pfwWwNqq8T8RWm6/vxyGQGTtjMBgwS1A8u5vwP7rXkA2p/w8XPwiPrFHHz0yNS+/S+3oPiH1nL7EaFm/
lpc_rms=-22.36
offset=108160
pitch_keycenter=a#5
sample=Flute_fall_PP_A#5.opus
</region>

<region>
hikey=a#6
hivel=127
lokey=a6
lovel=1
lpc=cKYAQtrUM8L9flBBRibpQNzBKcBSjJC/vzPtQIL9/D/5j5/AEeCSvkCoX0BC4LxA9pZ6wfa2t8ASMd9Bns3wwB4etsCJXIxA6I8KQPMw8MD5bDY909fdQG92v7//iBK/
lpc_rms=-7.19
offset=108160
pitch_keycenter=A#6
sample=Flute_fall_PP_A#6.opus
volume=-12.00
</region>

<region>
hikey=c5
hivel=127
lokey=b4
lovel=1
lpc=GxK9QberR8KLyPVBhBxlwJis77/H3hdBnezhwCBIg8C23zRAbHE3wB/z2EBYyWnAnPhSQO2njcBHIQNARfh7vwTpuT+3+IO+SnW/P06uX8BILO8+zKKEvs/zNUCQmnW/
lpc_rms=-27.15
offset=108160
pitch_keycenter=c5
sample=Flute_fall_PP_C5.opus
</region>

<region>
hikey=c6
hivel=127
lokey=b5
lovel=1
lpc=QUWIQb9EsMGPUEJAVSzMQPp5YsA70zxAyhpOPjy8U8DVJUxAc75Fv2wzBEAjbAjApkjEP0n4cD/Ns0+/CNTyPrh3f77w98s/sihVPzxTjL94Irk/V6qLwN/wHcD0mrhA
lpc_rms=-25.38
offset=107254
pitch_keycenter=c6
sample=Flute_fall_PP_C6.opus
</region>

<region>
hivel=127
key=d4
lovel=1
lpc=MHiQQmVWNMPCuARDV02OwTSJc0CGFMjA7HQ4Ppa0LsGm9QZAXXqov6d/yEAY6mdAxrBvv5CMEMCr7DC/3P/3v5zaMr7jryNA6TDhP7UNfr8Y2gLALLMJwH0YgUDLNYm/
lpc_rms=-27.84
offset=103468
sample=Flute_fall_PP_D4.opus
</region>

<region>
hikey=d5
hivel=127
lokey=c#5
lovel=1
lpc=aE3cQSDlbcIRRSJCKF1rwTuDfUFJPNjA+YUbQGsGBsF2dRdA7QI4v11iTUDzuOC+CMdQQKAwYsCGmYQ/K039v7GEWj/UnZK/ddZzQNz7AMAtLUNAWzFrv1si08CKKaxA
lpc_rms=-26.31
offset=108160
pitch_keycenter=d5
sample=Flute_fall_PP_D5.opus
</region>

<region>
hikey=d6
hivel=127
lokey=c#6
lovel=1
lpc=xP2bQRD+zMGjFwE+7/4EQZyGIsDwVoBAL58dP+GhscBCNqlAlWQfwN2qCUC+tRG/ohEBv09Ep7+tgdM/JSfwP8zQML/lAWG/Dm25P/G2YsD5q/fAlCsHQXamHkH/MwvB
lpc_rms=-21.99
offset=108160
pitch_keycenter=d6
sample=Flute_fall_PP_D6.opus
</region>

<region>
hikey=e4
hivel=127
lokey=d#4
lovel=1
lpc=nQ2OQiqxPsM9YC5DT1xpwiF9S0Hb41jBUpLMQFRJP8ABJgbAy3xwQGTqG8DtDYJAIoQOQEbthcDLQby/v2n2v2JUA0GUTHrAVRPIvwGZJT1EIIs/U/2FwJyqy0Bx9A/A
lpc_rms=-25.40
offset=108160
pitch_keycenter=e4
sample=Flute_fall_PP_E4.opus
</region>

<region>
hikey=e5
hivel=127
lokey=d#5
lovel=1
lpc=ebAAQgameMK3QfJBbiDoPzSDF8DK0+xAhEiHP2UPKME46MtAIjsKwR2gAUFOL3PAJLWoQHnLncDTfKlAdh3GwFOq0UDKGvK/qhWov/XBdL7ENQDAklARwBk6MUHqCbjA
lpc_rms=-24.76
offset=120661
pitch_keycenter=e5
sample=Flute_fall_PP_E5.opus
</region>

<region>
hikey=e6
hivel=127
lokey=d#6
lovel=1
lpc=pFifQbC04cGEc7tAeDKqQGVXgcBB965AEhciv0naN8Au0ZFAAAIKwNdGFkDV0Y3ABF0iQMo7rz5pLwxA4WWCv93cuL6aCaa/nHUjwUPPXkGdvxJAjUnNwJv0TEBxlgPA
lpc_rms=-23.21
offset=115762
pitch_keycenter=e6
sample=Flute_fall_PP_E6.opus
</region>

<region>
hikey=f#4
hivel=127
lokey=f4
lovel=1
lpc=R9JkQnBFDcOXz9dCTg3qwbBIaEHfoIU/XUcPwWNxVcCc1kW9LmPNv4Sm20AuLF7ANx1yQCqXoMDgoKhAq38lwTaXAEFG6AA+CP2BQOqsUMA2VVfAv5+MQG8kAMHrN61A
lpc_rms=-26.79
offset=108160
pitch_keycenter=f#4
sample=Flute_fall_PP_F#4.opus
</region>

<region>
hikey=f#5
hivel=127
lokey=f5
lovel=1
lpc=nKgZQtCVisKPHvtBxn3yPzLumsB5Q4dBeopfwSf1HcC/9cRAq7sKwVufZUHoAWnAKw/Tv6csisBxzXVA8yw9wdWdVkGqhrs/vnliwJNIlEDDZ9vA5kg7v8Fg/0AuQqLA
lpc_rms=-20.50
offset=103252
pitch_keycenter=f#5
sample=Flute_fall_PP_F#5.opus
</region>

<region>
hikey=f#6
hivel=127
lokey=f6
lovel=1
lpc=zXU8QcSUOMFHM+y/LsLYQJIBRsDtWJg+G6m+vP/WQT/YYYVAM+EswBeitz+MGpG/2SEbP4i17j17PoE/9cwgwMy3l8Bh9rJAAjYVQJFbg8BZHkI/ilr9P1AwEb+lkQjA
lpc_rms=-23.90
offset=108754
pitch_keycenter=f#6
sample=Flute_fall_PP_F#6.opus
</region>

<region>
end=156481
hikey=g#4
hivel=127
lokey=g4
lovel=1
lpc=6XAjQiXY0cIIVbJCQ1/owZ6sR0H7uK3AHKEmwMMowMB5/xJB/OkEwWYhAkH1cWjA0iSVQE02BMEzstxAKs+qwG2BVkCjzsG+TuyIPrXIWr9A8oA/TPwvQDbs9MAO45FA
lpc_rms=-26.99
offset=108160
pitch_keycenter=g#4
sample=Flute_fall_PP_G#4.opus
</region>

<region>
hikey=g#5
hivel=127
lokey=g5
lovel=1
lpc=YKTpQW19L8KVayxBIXlsQHQjNz/cB/JAVyqBwMsC4D8UQ5TAWfoMwLMIPz+5goS+9snQQEx5gz7aRpY/UKhZwNPhzMAoOdM/Ou/lP69bUUBJE2dAEDkFwLLcX8CadMy+
lpc_rms=-21.35
offset=108160
pitch_keycenter=g#5
sample=Flute_fall_PP_G#5.opus
</region>

<region>
hikey=g#6
hivel=127
lokey=g6
lovel=1
lpc=jPrNQY9x5cG4px/BIB4nQT5q20CHTcpAow3EwKqHIr9r6bQ/Cat7wODJm0DA/sm/0sKYQKnu6cBM5i3BB5MOQdI/gkHk1IS/WfIjwcFEr8CSX4I/Vka4QPjM8j2hAai/
lpc_rms=-19.60
offset=99170
pitch_keycenter=g#6
sample=Flute_fall_PP_G#6.opus
</region>
</group>

<group>
ampeg_attack=0.01
ampeg_release=1.80
group_label=Release_46-90
lpc_hicc1=84
lpc_locc1=43
rt_decay=0.000000
trigger=release

<region>
hikey=a#4
hivel=127
lokey=a4
lovel=1
lpc=sTf+QRzzqsJbzKNCKLYFwlNstkC64LBA+tOYwBjd+L8vGgbAKCPkPz94n0CWQrnA3CQKQRrTc8Feb3tBiYL/wELM4L54pYtAFbtNwJI8KMApUypBb95aweIyA0H4Eta/
lpc_rms=-19.75
offset=108160
pitch_keycenter=a#4
sample=Flute_fall_MF_A#4.opus
</region>

<region>
hikey=a#5
hivel=127
lokey=a5
lovel=1
lpc=U+qcQZyvCsIH6LFBC5SRwPuVncDLkSdBRZvKwKujIr27L2hAEJi3wBdTSUDXKoC+sOmGQJhxa8Cgmb0/Q9qkwM1WyUDdmgzA+h4GP7PW1T9h8Ca+ouR5wFngO0DejNi/
lpc_rms=-14.40
offset=108160
pitch_keycenter=a#5
sample=Flute_fall_MF_A#5.opus
</region>

<region>
hikey=a#6
hivel=127
lokey=a6
lovel=1
lpc=cKYAQtrUM8L9flBBRibpQNzBKcBSjJC/vzPtQIL9/D/5j5/AEeCSvkCoX0BC4LxA9pZ6wfa2t8ASMd9Bns3wwB4etsCJXIxA6I8KQPMw8MD5bDY909fdQG92v7//iBK/
lpc_rms=-7.19
offset=108160
pitch_keycenter=A#6
sample=Flute_fall_MF_A#6.opus
</region>

<region>
hikey=c5
hivel=127
lokey=b4
lovel=1
lpc=X3+eQctkRMLLVzRCMXupwXD3KkFSFZzA+1W+v1J7A0APw8K+atfVvSUA8z8LcajA4A/qQOb6NMBRBK+8DN+nwN2N2kAZyKC/0mMFwKdFsz/p7/I/1b97wJ5Ltz+hGCE/
lpc_rms=-18.98
offset=108160
pitch_keycenter=c5
sample=Flute_fall_MF_C5.opus
</region>

<region>
hikey=c6
hivel=127
lokey=b5
lovel=1
lpc=Lm15QUfIu8HckgpBn3iTQJFtBMEUb9tAHl1HvyNVK8BIBQNAz6qSv+BDMEDHafy/X94jQL1Szb86tQo8Muc9P9+LFD0Z2gNAKLgBwEktyr8uRrZAYjV7wA0i0MAFpOxA
lpc_rms=-17.67
offset=108160
pitch_keycenter=c6
sample=Flute_fall_MF_C6.opus
</region>

<region>
end=129982
hivel=127
key=d4
lovel=1
lpc=/MQMQtB6xMKd2MpCxn0/wgxhPkFELRfAGqnAQGYwDcF9d1c/UnADv3kVhUCRJ6e+BcA+PyznU8AS941A8ISiwHxdAUA+pHO+xHEPQLgrQsAVNM8/AawvQPHxycCsVlVA
lpc_rms=-28.39
offset=85297
sample=Flute_fall_MF_D4.opus
</region>

<region>
hikey=d5
hivel=127
lokey=c#5
lovel=1
lpc=fVqpQepnPMLHJApCsTDAwCUZpcDkqtxAIAKBv1AUrcAXKqhAmc52wK0hvD9qVhtAHaw2vxfuQ8CBMvo/hDJXP8+qx79x3QZARCQDwKRMR0Csqg7AYSGTP95jfcCj5mpA
lpc_rms=-19.53
offset=108160
pitch_keycenter=d5
sample=Flute_fall_MF_D5.opus
</region>

<region>
hikey=d6
hivel=127
lokey=c#6
lovel=1
lpc=kOaLQYL7zcGCmcVAnY2xQCQ4U8DETDZA/eqUvz9t1T7kKJ4/yG76v1aKN0Bg7MS/XUipP0hN7L+t7gtAyGC8PcDfwT2RFoy/HUMTQJU1G8DYqh3BpVJLQR+/TUD9t6nA
lpc_rms=-15.80
offset=108945
pitch_keycenter=d6
sample=Flute_fall_MF_D6.opus
</region>

<region>
hikey=e4
hivel=127
lokey=d#4
lovel=1
lpc=tq0TQvrczcJoH99C22qQwgrcKkLWfQfB441rwUqkIUH9aLnAdzIiP5UinkCqmWzA/lcAQSiDNsFznBNBFlEBwTxgS0AyWhRA5s+NP0+clsD4FhdAZnKXwPogD0EP+I7A
lpc_rms=-21.38
offset=108160
pitch_keycenter=e4
sample=Flute_fall_MF_E4.opus
</region>

<region>
hikey=e5
hivel=127
lokey=d#5
lovel=1
lpc=vs8CQq4IjsIWrWFCZpmxwRnPMEFL293A7VuyP11xZz2mP4xA+brrvyxpFcDXLVLAJBbhQOam5sB+7jdBHc3hwKSLkD8HVN6/GhO6QJ1L4MCOuOVA/CndwEXVGUDQLto/
lpc_rms=-17.65
offset=108160
pitch_keycenter=e5
sample=Flute_fall_MF_E5.opus
</region>

<region>
hikey=e6
hivel=127
lokey=d#6
lovel=1
lpc=WoqCQY/ZqsFeBpS/Uq8cQQhQEsA9PSE/ZEomP1fHJL/e3+M+Kw/yviH+7T/RvgjAPsvBP991w77JgOI+Y6moPtm9Lz/DopjAdUC/wEJgPEGOUJlA5wADwRrgQr7TwEY/
lpc_rms=-17.93
offset=106460
pitch_keycenter=e6
sample=Flute_fall_MF_E6.opus
</region>

<region>
hikey=f#4
hivel=127
lokey=f4
lovel=1
lpc=pW2tQetlYsLm/lhCwpXAwWB17kDSami+jYNEwMUsgr+wv4tAGEWPwHyrTEBreBHAS5+wQA05AsETeBBBUp9NwcQYQUEIyivAlruvvdhoocB4M8RAiLOjwHQ6iEBCNsS/
lpc_rms=-21.99
offset=108160
pitch_keycenter=f#4
sample=Flute_fall_MF_F#4.opus
</region>

<region>
end=160034
hikey=f#5
hivel=127
lokey=f5
lovel=1
lpc=DaWVQW3KHMKpLP1B2WhNwfKbEUBHYTtAIKlkv+xFuD1ulkO/1y6ivs3hLz9E7DDA36XLQKdXkcCR1GVApQ1vwM3FaECwCFHARCQ/QE9Y3b/Se7w/oDZvwPBo0EAAozrA
lpc_rms=-18.57
offset=108196
pitch_keycenter=f#5
sample=Flute_fall_MF_F#5.opus
</region>

<region>
hikey=f#6
hivel=127
lokey=f6
lovel=1
lpc=1ZbSQZyo8cHL3IbA2RU/QfBtu79DM8o/9JPfQDdF0MA7rRNAxssvvylG+j8TnIi/uDQPQMddj7814GlAqa6XwGULhsG9/aRBKpMVQbh4H8F8YoA+gAGRv3nvjcD7f5dA
lpc_rms=-13.93
offset=105016
pitch_keycenter=f#6
sample=Flute_fall_MF_F#6.opus
</region>

<region>
hikey=g#4
hivel=127
lokey=g4
lovel=1
lpc=D7PTQYJ7lsJ+AqNCC3c5wiyt4EHl6Z/BpHLEQIVL1sBwF05B3IQTwRlvEUFxdVDBbYkrQVpBusAvPe5A+b4+wWxXG0E4haXA1jdHQBRUKj/0foe/+v+TwKytxUDcsgXA
lpc_rms=-21.28
offset=108160
pitch_keycenter=g#4
sample=Flute_fall_MF_G#4.opus
</region>

<region>
hikey=g#5
hivel=127
lokey=g5
lovel=1
lpc=sqliQciRw8Hu8VJBZgD3v1PBqT+SsNW/Qv8NQD3dH8Cl6L8/WrWvPmbemb9EvOO+wycLQMHIbL7opDpA1Xc3wG+3Vr+VIqS/3AlXQFGGSr9+eFO/yskpP/KamD9BuqK/
lpc_rms=-21.52
offset=108160
pitch_keycenter=g#5
sample=Flute_fall_MF_G#5.opus
</region>

<region>
hikey=g#6
hivel=127
lokey=g6
lovel=1
lpc=+jCCQaWln8FWL8Q/2sLXQL6/rsBZ/59AWBNEP4nVwD85IwhAYp6PwOjT7T/mTGw+a+kfQPkRvb+1/wDBil23QHYRDEEJCMTARo4yQLdRYL9GpS6/Et9zv8gpJcAEDIhA
lpc_rms=-14.47
offset=108160
pitch_keycenter=g#6
sample=Flute_fall_MF_G#6.opus
</region>
</group>

<group>
ampeg_attack=0.01
ampeg_release=1.80
group_label=Release_91-127
lpc_hicc1=127
lpc_locc1=85
rt_decay=0.000000
trigger=release

<region>
hikey=a#4
hivel=127
lokey=a4
lovel=1
lpc=vkaIQaYxKcIyCBdC5FpKwdH8j792cClA6XsBQEsensCntYY/GGtFv4ijpEAyhbvANloLQdqpW8FPekxBIb0LwSQKskA0+pq/5GV4v9hljD52hbo/fTAkwMA/xD6Thm8/
lpc_rms=-17.90
offset=104990
pitch_keycenter=a#4
sample=Flute_fall_FF_A#4.opus
</region>

<region>
hikey=a#5
hivel=127
lokey=a5
lovel=1
lpc=VJ+GQcW8vMH61+RA+LqTQBh/nsDvg9dAmN2WwO0S+j/RM0C/g5DtvxRe6T8pj7e+dq2PQM0xisDgIcU/5rvGv/HSIj23uwdAfICcPsueIr8Gasw/mNhOwMi54z88Zt2/
lpc_rms=-12.69
offset=108160
pitch_keycenter=a#5
sample=Flute_fall_FF_A#5.opus
</region>

<region>
end=163930
hikey=a#6
hivel=127
lokey=a6
lovel=1
lpc=4DTGQY2aEcIHpzxB2vD5QOI3jMBsGds/NU2aP3a5gD+WoJY/SyzrvziubkAToQtAJxIzwVDfgsD5ScpBKagjwVwZvMCk7btAmzZfv7YAn78l2CU+p70UQGQvCMAB02A/
lpc_rms=-10.86
offset=108160
pitch_keycenter=A#6
sample=Flute_fall_FF_A#6.opus
</region>

<region>
hikey=c5
hivel=127
lokey=b4
lovel=1
lpc=PaEdQfpOscHTLIpB3j6LwFj0c7zGIw8/WEKJv3QCez8utGu/XbgyPdJnlb8E+Y9A+Pk+wIw0ir4Owia+VXP9P4zuI8CpPJA/zXC8vsH9yT9+ZQE94ycQwEkAmT/BMGk9
lpc_rms=-20.89
offset=108160
pitch_keycenter=c5
sample=Flute_fall_FF_C5.opus
</region>

<region>
hikey=c6
hivel=127
lokey=b5
lovel=1
lpc=ZjmJQfwFysEvqCRB5QQ4PvT51r+kDnRAzYmDwMiPTkDKy56/K5u2vnHYej9pBE5A6Byqv79eQMBDOgNAnPQKQMGYy74BUd+/rAZEQMaSGcDvdvE/6Q18v9Gh4MBNrvRA
lpc_rms=-13.97
offset=108160
pitch_keycenter=c6
sample=Flute_fall_FF_C6.opus
</region>

<region>
hivel=127
key=d4
lovel=1
lpc=XIznQbxbk8LbCINChWniwZDDgEH+WwbBUpdLQMzNFcGo2ChBXIAhwVSRFEEWybvAu7D7QHka6cBB3qpAOXPowIioskBJYX7ABb2AQKWeFMCEhWRA6ncEwDLCU8BTkTBA
lpc_rms=-22.36
offset=108160
sample=Flute_fall_FF_D4.opus
</region>

<region>
hikey=d5
hivel=127
lokey=c#5
lovel=1
lpc=JFUeQXC+ocE1jVNBavmhv+yi+78o3RdAgbXNv6E6BT+62zG/GvfMvoN0xj+1DhM/ygb2Pj7xrMA6lsxAjfkqwDK57T7t8oe/K3G+P/qvyr1xPAm/lzEnPWwUG7/ejXQ/
lpc_rms=-21.44
offset=108160
pitch_keycenter=d5
sample=Flute_fall_FF_D5.opus
</region>

<region>
hikey=d6
hivel=127
lokey=c#6
lovel=1
lpc=dPGSQRAYv8FqfXdA1yesQP9rEcAC6uQ/KnPFP13QV8DlCm1AeOOqv6HKsj9hofw9LakiPh/9FD2R8PU+ifYLQGD4PsC/ThdAid81P6qjq7+SHiPB1+kUQdrK2ECNDK7A
lpc_rms=-11.51
offset=108160
pitch_keycenter=d6
sample=Flute_fall_FF_D6.opus
</region>

<region>
hikey=e4
hivel=127
lokey=d#4
lovel=1
lpc=SPH7QTg3qcIvt5pCKde5wVBX7j+whcO/hNfgwMyBxkA6OpRAEVE8wREPUEHKUTPBjWpeQXg5jcGgL1xB3SPzwFUfekAqLo8/y+RdwNenBr1uZWlAhAjJwBJzxUB1XArA
lpc_rms=-20.31
offset=108160
pitch_keycenter=e4
sample=Flute_fall_FF_E4.opus
</region>

<region>
hikey=e5
hivel=127
lokey=d#5
lovel=1
lpc=0mBoQUI+78H2waJBVNutwIPdhECh8CG/HU2lwOg3mUBcmxDAH7pUQEHprsBDLnNAdypuP9JvHcDkrANAznLmv35c5z9dAm+/qFC1P0io+b8sRw1Avr2Wv/BJob/UNvI/
lpc_rms=-19.30
offset=115501
pitch_keycenter=e5
sample=Flute_fall_FF_E5.opus
</region>

<region>
hikey=e6
hivel=127
lokey=d#6
lovel=1
lpc=O3uiQQlgAMLbGjZB1iWcQBhp7r8ePbc/sjrzv3xyG0C62EO+/o7bvxnOgkB7x+e/Vof6vkxbGkBzALI+aTGtv0W6F0Dr6rjAQ67hwGYRrUEVWgXBgL1HwIrTxT58p5U/
lpc_rms=-11.98
offset=108160
pitch_keycenter=e6
sample=Flute_fall_FF_E6.opus
</region>

<region>
hikey=f#4
hivel=127
lokey=f4
lovel=1
lpc=Pom4QcZFVsK/5BJCub+vvgCicMCcyhHAeZOZP8hfssBA0w5BQt+3wHqpo0A2wsjAuhzUQNxF98AUjQVBgK+rwMSlvT8DfmE98qF2PyaWMsAu4m1AIhpWwMsg7z/3pN6+
lpc_rms=-18.70
offset=108160
pitch_keycenter=f#4
sample=Flute_fall_FF_F#4.opus
</region>

<region>
hikey=f#5
hivel=127
lokey=f5
lovel=1
lpc=DTIbQeMlj8GbUT1BU9M3wE+YSL0K368/FuWIvw9KAD9rEIG91xk+PgWcEr8B0Ys/Rwqjv9ddLj58YNk/bzirPp2pAr9T8jE+vX+8v4LccT4nKO0/8+JYv5LznD4Ve5M9
lpc_rms=-19.21
offset=108160
pitch_keycenter=f#5
sample=Flute_fall_FF_F#5.opus
</region>

<region>
end=164143
hikey=f#6
hivel=127
lokey=f6
lovel=1
lpc=LhmmQQce38HYFZ9A9qgRQUvUQMDXzMQ+1Kv4Pxlunr9AnQRAlrA3PWqga0D2XLXA1Cz9QIC5osBR7L9A1FkHwUxw1cDx85JBhaFbv2a3C8GGb4tAMGgIwFtOKED4S7G/
lpc_rms=-13.60
offset=101448
pitch_keycenter=f#6
sample=Flute_fall_FF_F#6.opus
</region>

<region>
hikey=g#4
hivel=127
lokey=g4
lovel=1
lpc=GAtsQXl4C8LxfeVB0eYpwX9/ukBmbFzA05BRv7W0xDzORTg/n0i8vjh7zT/1c22/80wBvKYlcL/CCu0/CrKWvzKuiD/zNhnAM7gPQDei678OO/0/7fVzP8eOT8BjXsI/
lpc_rms=-20.66
offset=104340
pitch_keycenter=g#4
sample=Flute_fall_FF_G#4.opus
</region>

<region>
hikey=g#5
hivel=127
lokey=g5
lovel=1
lpc=HS0RQVzEdMFv/ulAORB9P743u7+815M+0vafP+qrvL/iFABADk8nwEh5mj8OKUu/BbUjQKewTL80IRbAJ2ZHQMm+6L1KBcK/L5e7v3zThkDgsDXAO4X3P28IX7/wIp2+
lpc_rms=-18.75
offset=108160
pitch_keycenter=g#5
sample=Flute_fall_FF_G#5.opus
</region>

<region>
end=164430
hikey=g#6
hivel=127
lokey=g6
lovel=1
lpc=I9mXQaaKycHlPYlAckvVQD6+P7/XEYa/HRuTP86JQEAeCsu/JxD6vsvE4T9+UTS/YO8kQNBMlL+nl1bBZUtdQbe13EDLpynBRQjfP2ppLkB8ZeC/5CuZvwNtbT/qDxg+
lpc_rms=-13.88
offset=108160
pitch_keycenter=g#6
sample=Flute_fall_FF_G#6.opus
</region>
</group>